Coordinates
version=1
nRows=19
nColumns=33
inDegrees=yes

Units are S.I. units (second, meters, Newtons, ...)
Angles are in degrees.

endheader
time	ground_thorax_rot_x	ground_thorax_rot_y	ground_thorax_rot_z	ground_thorax_tx	ground_thorax_ty	ground_thorax_tz	clav_prot_r	clav_elev_r	scapula_abduction_r	scapula_elevation_r	scapula_upward_rot_r	scapula_winging_r	shoulder_elv_r	plane_of_elev_r	axial_rot_r	elbow_flexion_r	pro_sup_r	wrist_flex_r	wrist_dev_r	clav_prot_l	clav_elev_l	scapula_abduction_l	scapula_elevation_l	scapula_upward_rot_l	scapula_winging_l	shoulder_elv_l	plane_of_elev_l	axial_rot_l	elbow_flexion_l	pro_sup_l	wrist_flex_l	wrist_dev_l
      5.89000000	     -5.88487806	      3.83999098	      8.90953020	     -0.08796809	      1.02861559	      0.00390116	     16.17971860	     -9.47309073	     45.00000000	    -11.60146380	     28.44910946	    -14.59074594	     -3.90836892	    -52.40640840	    121.90359421	    -32.53565380	   -130.67743201	      4.50956877	      0.14680800	     26.65049919	    -11.39799384	    -40.16319956	     -5.04378159	    -23.82535515	     14.10547611	     60.76278698	      3.56235309	     14.64395894	     12.53985470	     25.07005087	     14.03498697	     -8.28027048
      5.90000000	     -5.85539114	      3.88139556	      8.90018129	     -0.08750910	      1.02881351	      0.00401289	     16.17869347	     -9.48537649	     45.00000000	    -11.61245461	     28.45227256	    -14.58366926	     -3.91543650	    -52.38653497	    121.91516117	    -32.53501223	   -130.67772635	      4.51046910	      0.14714528	     26.64903897	    -11.39149176	    -40.16122520	     -5.05645747	    -23.84023446	     14.10514890	     60.75688185	      3.54301535	     14.64062116	     12.53223985	     25.06921300	     14.03547409	     -8.27912286
      5.91000000	     -5.82085455	      3.92171463	      8.88070991	     -0.08724579	      1.02897485	      0.00414057	     16.18111379	     -9.49280097	     45.00000000	    -11.61721927	     28.44743569	    -14.57948712	     -3.92074135	    -52.38402111	    121.92345040	    -32.52744827	   -130.67766721	      4.50996539	      0.14770269	     26.64561517	    -11.37477680	    -40.15803733	     -5.07706303	    -23.85428011	     14.11076185	     60.75916307	      3.51494370	     14.63573731	     12.52448447	     25.06770002	     14.03626281	     -8.27857713
      5.92000000	     -5.79074648	      3.97188442	      8.83788529	     -0.08704465	      1.02901371	      0.00418076	     16.19240264	     -9.48614613	     45.00000000	    -11.60589329	     28.42275756	    -14.58727425	     -3.89825111	    -52.45518571	    121.92384660	    -32.49039098	   -130.68113587	      4.50223590	      0.14576326	     26.64138910	    -11.31820836	    -40.15762379	     -5.12618543	    -23.85917245	     14.12042723	     60.79198475	      3.46626033	     14.60204515	     12.54152563	     25.05176144	     14.04149265	     -8.28799381
      5.93000000	     -5.94598215	      4.03948261	      8.75113291	     -0.08719604	      1.02870357	      0.00419083	     16.20522181	     -9.70335351	     45.00000000	    -11.78343411	     28.40815541	    -14.46790880	     -3.74955565	    -52.58476668	    122.23947475	    -32.37160981	   -130.98491674	      4.51439911	      0.08531436	     26.63934621	    -10.98600519	    -40.19658823	     -5.42583899	    -23.90929264	     14.22995080	     60.83997830	      3.22233234	     13.50705720	     13.30331095	     24.36514075	     14.38484502	     -8.69789662
      5.94000000	     -5.91607367	      4.03544300	      8.95678327	     -0.08719034	      1.02875387	      0.00430944	     16.50801387	     -9.96207567	     45.00000000	    -11.83775613	     27.75445810	    -14.43346883	     -3.69292839	    -52.68634345	    121.85847995	    -32.73988271	   -132.06095380	      4.58529916	     -0.06910051	     26.37029067	    -10.94295504	    -39.78043113	     -5.33735320	    -23.60168313	     13.99524157	     60.56504403	      2.63323289	     13.13283202	     13.39803709	     22.73037382	     15.06172864	     -9.00764472
      5.95000000	     -5.77683341	      4.11942189	      8.82942252	     -0.08739477	      1.02855900	      0.00430469	     16.47742602	     -9.94127826	     45.00000000	    -11.83736918	     27.82068912	    -14.43370582	     -3.51824584	    -52.94278877	    121.85770983	    -32.64872005	   -132.29459355	      4.56440289	     -0.05923970	     26.32081635	    -10.82901513	    -39.71222610	     -5.45008027	    -23.63422285	     13.98041851	     60.52920639	      2.66556739	     12.95989175	     13.70984523	     22.47986773	     15.11294253	     -9.07840685
      5.96000000	     -5.74807092	      4.03070376	      9.00851001	     -0.08734361	      1.02837666	      0.00443629	     16.65400259	    -10.14427259	     45.00000000	    -11.91136246	     27.44086887	    -14.38563724	     -3.71051714	    -53.32850848	    121.91937431	    -32.93924931	   -135.90382890	      4.66429212	      0.15960632	     25.71173830	    -10.84925979	    -38.72479801	     -5.36440615	    -23.40437213	     13.37148304	     60.50350822	      1.89882278	     11.88775152	     14.00444579	     19.60724071	     15.94166594	     -9.23037826
      5.97000000	     -5.67410033	      4.07283926	      8.75296569	     -0.08751750	      1.02797810	      0.00457565	     16.67852258	    -10.09387691	     44.99039688	    -11.85137538	     27.36909775	    -14.42468573	     -3.60432428	    -53.49112082	    121.94155032	    -33.23698485	   -136.36270280	      4.72798279	      0.00989554	     25.58166976	    -10.67486628	    -38.52970650	     -5.53646311	    -23.44454522	     13.29381373	     60.61510849	      1.87937783	     12.00841085	     14.63643741	     19.31572408	     15.79922263	     -9.25388468
      5.98000000	     -5.55414228	      4.23734817	      8.76991566	     -0.08811825	      1.02771653	      0.00458736	     16.70878349	    -10.06480207	     44.90393241	    -11.77987367	     27.17513412	    -14.43439706	     -3.51539273	    -53.75184491	    121.79655489	    -33.22247748	   -136.52779125	      4.71663245	     -0.00240142	     25.49970289	    -10.63192710	    -38.39910653	     -5.58867907	    -23.46852876	     13.22288212	     60.54177830	      1.90449280	     12.05624688	     14.90097708	     19.22374055	     15.79733248	     -9.29841615
      5.99000000	     -5.45136693	      3.98220761	      8.99984750	     -0.08818016	      1.02739950	      0.00478319	     17.14433836	    -10.39603924	     45.00000000	    -11.84675192	     26.35890775	    -14.43373160	     -3.69005815	    -54.19536362	    121.61287968	    -34.27404025	   -141.22466346	      4.92024549	      0.47104034	     24.74710495	    -10.69725194	    -37.13691721	     -5.66572950	    -23.66182773	     12.41925763	     60.74632044	      1.19152421	     11.46471718	     15.83023667	     17.77844682	     16.12891677	     -9.38008892
      6.00000000	     -5.32460436	      4.00028436	      8.99433612	     -0.08847887	      1.02697288	      0.00495859	     17.04140030	    -10.28581327	     44.67909729	    -11.69939950	     26.11743803	    -14.37771752	     -3.82333479	    -54.39070106	    121.68823665	    -34.74554292	   -141.94098464	      5.04351149	      0.35853795	     24.51617121	    -10.59242359	    -36.76206557	     -5.81143234	    -23.75711506	     12.21226012	     60.68794659	      1.06576345	     11.82228586	     16.52596555	     17.50917772	     16.07501312	     -9.47873038
      6.01000000	     -5.20432227	      4.05380048	      9.08005180	     -0.08882038	      1.02659890	      0.00520387	     17.00221456	    -10.23912366	     44.25652225	    -11.53184365	     25.58819363	    -14.28201759	     -3.98952232	    -54.51394053	    121.53442696	    -35.47561952	   -142.98228674	      5.21977019	      0.39933551	     24.24594503	    -10.56361780	    -36.30962937	     -5.92275669	    -23.91236401	     11.93612400	     60.68899556	      0.82709061	     11.96981907	     17.35123187	     17.28403723	     16.09260522	     -9.63784307
      6.02000000	     -5.24361756	      4.06277069	      9.00969538	     -0.08906889	      1.02708416	      0.00509462	     16.92031115	    -11.04149985	     43.58599628	    -12.02947212	     24.86033629	    -13.59475455	     -3.83987908	    -55.02909617	    121.81267406	    -36.36063768	   -148.82800925	      5.34885861	      1.04943929	     23.51250080	    -10.73420950	    -35.07259327	     -5.84156530	    -23.96680761	     11.15001541	     61.25944582	      0.37619940	     11.07545286	     18.04572814	     16.89218962	     16.61851280	     -9.71373151
      6.03000000	     -5.11204035	      4.06118807	      9.11935878	     -0.08955411	      1.02659356	      0.00534252	     16.81645772	    -10.87136922	     43.13560001	    -11.77872692	     24.42329518	    -13.54398725	     -4.11247318	    -55.17668987	    121.82058296	    -37.18901562	   -149.16669343	      5.56677213	      0.87141572	     23.30756633	    -10.57740017	    -34.73990733	     -6.06756177	    -24.14184161	     10.97865435	     61.08611218	      0.19712095	     11.65220661	     19.02171818	     16.72786879	     16.54038773	     -9.90818156
      6.04000000	     -5.14642919	      4.06600564	      9.22739966	     -0.08999176	      1.02685688	      0.00528256	     16.69352183	    -11.42433504	     42.29588763	    -12.01656440	     23.51313901	    -12.94347720	     -4.10579437	    -55.51909763	    122.11860353	    -38.28034244	   -153.04111186	      5.77378160	      0.78714097	     22.85850807	    -10.59839582	    -33.97698131	     -6.17537713	    -24.36077845	     10.50680185	     61.34621962	     -0.22883770	     11.52078018	     20.08309174	     17.04390840	     16.89006236	    -10.13038115
      6.05000000	     -4.94655659	      4.10773663	      9.19936409	     -0.09059108	      1.02648731	      0.00562867	     16.58706794	    -11.22298204	     41.85773565	    -11.74004110	     23.09357142	    -12.91020389	     -4.29340585	    -55.63280392	    121.93808790	    -39.27956086	   -153.23970190	      6.03365319	      0.71750154	     22.67380654	    -10.45511736	    -33.67998561	     -6.38686495	    -24.53272936	     10.35947540	     61.22021418	     -0.33239362	     11.96376862	     21.17583989	     16.91297886	     16.84164250	    -10.36578740
      6.06000000	     -4.94643945	      4.08257611	      9.50772843	     -0.09120935	      1.02616189	      0.00602576	     16.51818859	    -11.14345381	     41.25253001	    -11.47657119	     22.34720579	    -12.76803128	     -4.91434507	    -55.79676349	    121.80511379	    -40.59527313	   -153.81635791	      6.38617379	      0.81743470	     22.42609313	    -10.36180504	    -33.26189844	     -6.63210060	    -24.85806304	     10.11113393	     61.24183649	     -0.83022820	     12.25862594	     22.36145526	     16.90203655	     16.89062751	    -10.63623976
      6.07000000	     -5.02175434	      4.18537631	      9.53392079	     -0.09164444	      1.02664414	      0.00616801	     16.38977835	    -11.76400956	     40.43868900	    -11.77281550	     21.47633555	    -12.12706409	     -5.30747568	    -56.20904306	    121.19366125	    -42.08493333	   -156.21896985	      6.72092293	      1.34480590	     22.03216475	    -10.40071535	    -32.58909821	     -6.76012842	    -25.16140900	      9.69096171	     61.71342731	     -1.35402810	     11.90734736	     23.79158530	     17.39875756	     17.47769542	    -10.94792801
